<?xml version="1.0"?>
<svg xmlns="http://www.w3.org/2000/svg" xmlns:xlink="http://www.w3.org/1999/xlink" version="1.1" id="Capa_1" x="0px" y="0px" viewBox="0 0 490 490" style="enable-background:new 0 0 490 490;" xml:space="preserve" width="512px" height="512px" class=""><g><g>
	<path d="M108.09,23.539H21.412C9.605,23.539,0,33.147,0,44.958v86.671c0,11.812,9.605,21.421,21.412,21.421h86.678   c11.81,0,21.418-9.609,21.418-21.421V44.958C129.508,33.147,119.899,23.539,108.09,23.539z M13.951,44.958   c0-4.118,3.347-7.467,7.461-7.467h86.678c4.118,0,7.469,3.35,7.469,7.467v86.671c0,4.119-3.351,7.47-7.469,7.47H21.412   c-4.114,0-7.461-3.351-7.461-7.47V44.958z" data-original="#000000" class="active-path" data-old_color="#00E5FF" fill="#006BFF"/>
	<path d="M183.658,60.306h299.366c3.847,0,6.976-3.129,6.976-6.976c0-3.846-3.129-6.975-6.976-6.975H183.658   c-3.847,0-6.977,3.129-6.977,6.975C176.682,57.177,179.811,60.306,183.658,60.306z" data-original="#000000" class="active-path" data-old_color="#00E5FF" fill="#006BFF"/>
	<path d="M183.658,95.269h236.559c3.847,0,6.977-3.129,6.977-6.976s-3.13-6.975-6.977-6.975H183.658   c-3.847,0-6.977,3.129-6.977,6.975S179.811,95.269,183.658,95.269z" data-original="#000000" class="active-path" data-old_color="#00E5FF" fill="#006BFF"/>
	<path d="M483.024,116.284H183.658c-3.847,0-6.977,3.129-6.977,6.976c0,3.846,3.13,6.976,6.977,6.976h299.366   c3.847,0,6.976-3.129,6.976-6.976C490,119.414,486.871,116.284,483.024,116.284z" data-original="#000000" class="active-path" data-old_color="#00E5FF" fill="#006BFF"/>
	<path d="M483.024,203.059H183.658c-3.847,0-6.977,3.129-6.977,6.976c0,3.846,3.13,6.976,6.977,6.976h299.366   c3.847,0,6.976-3.129,6.976-6.976C490,206.188,486.871,203.059,483.024,203.059z" data-original="#000000" class="active-path" data-old_color="#00E5FF" fill="#006BFF"/>
	<path d="M183.658,251.977h236.559c3.847,0,6.977-3.129,6.977-6.976c0-3.846-3.13-6.976-6.977-6.976H183.658   c-3.847,0-6.977,3.129-6.977,6.976C176.682,248.847,179.811,251.977,183.658,251.977z" data-original="#000000" class="active-path" data-old_color="#00E5FF" fill="#006BFF"/>
	<path d="M483.024,272.991H183.658c-3.847,0-6.977,3.129-6.977,6.976s3.13,6.976,6.977,6.976h299.366   c3.847,0,6.976-3.129,6.976-6.976S486.871,272.991,483.024,272.991z" data-original="#000000" class="active-path" data-old_color="#00E5FF" fill="#006BFF"/>
	<path d="M483.024,359.767H183.658c-3.847,0-6.977,3.129-6.977,6.976c0,3.846,3.13,6.976,6.977,6.976h299.366   c3.847,0,6.976-3.129,6.976-6.976C490,362.896,486.871,359.767,483.024,359.767z" data-original="#000000" class="active-path" data-old_color="#00E5FF" fill="#006BFF"/>
	<path d="M183.658,408.684h236.559c3.847,0,6.977-3.129,6.977-6.976c0-3.846-3.13-6.976-6.977-6.976H183.658   c-3.847,0-6.977,3.129-6.977,6.976C176.682,405.554,179.811,408.684,183.658,408.684z" data-original="#000000" class="active-path" data-old_color="#00E5FF" fill="#006BFF"/>
	<path d="M483.024,429.695H183.658c-3.847,0-6.977,3.129-6.977,6.976s3.13,6.975,6.977,6.975h299.366   c3.847,0,6.976-3.129,6.976-6.975S486.871,429.695,483.024,429.695z" data-original="#000000" class="active-path" data-old_color="#00E5FF" fill="#006BFF"/>
	<path d="M28.017,118.001c-0.002,1.863,0.723,3.616,2.04,4.933c1.317,1.321,3.07,2.048,4.936,2.048c1.86,0,3.61-0.724,4.928-2.039   l24.83-24.793l24.832,24.792c1.316,1.315,3.066,2.04,4.928,2.04c1.866,0,3.619-0.727,4.937-2.047   c1.316-1.318,2.04-3.07,2.039-4.934c-0.001-1.863-0.728-3.614-2.047-4.931L74.624,88.293l24.817-24.777   c2.721-2.719,2.725-7.144,0.007-9.865c-1.318-1.32-3.072-2.047-4.938-2.047c-1.86,0-3.61,0.724-4.927,2.039L64.752,78.436   l-24.83-24.793c-1.317-1.315-3.067-2.04-4.929-2.04c-1.865,0-3.618,0.727-4.934,2.047c-1.318,1.318-2.043,3.071-2.041,4.935   c0.001,1.863,0.729,3.614,2.047,4.931L54.88,88.293L30.065,113.07C28.746,114.387,28.018,116.138,28.017,118.001z" data-original="#000000" class="active-path" data-old_color="#00E5FF" fill="#006BFF"/>
	<path d="M28.017,431.416c-0.002,1.864,0.723,3.616,2.04,4.934c1.317,1.321,3.07,2.048,4.936,2.048c1.86,0,3.61-0.724,4.928-2.039   l24.83-24.792l24.832,24.792c1.316,1.315,3.066,2.04,4.928,2.04c1.866,0,3.619-0.727,4.937-2.047   c2.718-2.721,2.714-7.147-0.008-9.865l-24.816-24.777l24.817-24.777c1.318-1.316,2.045-3.067,2.046-4.931   c0.001-1.863-0.723-3.615-2.039-4.934c-1.317-1.32-3.071-2.047-4.937-2.047c-1.861,0-3.611,0.725-4.927,2.04l-24.833,24.792   l-24.83-24.792c-1.317-1.316-3.067-2.04-4.929-2.04c-1.865,0-3.618,0.727-4.934,2.047c-1.318,1.318-2.043,3.071-2.041,4.934   c0.001,1.863,0.729,3.614,2.047,4.931l24.816,24.777l-24.816,24.777C28.746,427.802,28.018,429.553,28.017,431.416z" data-original="#000000" class="active-path" data-old_color="#00E5FF" fill="#006BFF"/>
	<path d="M108.09,180.248H21.412C9.605,180.248,0,189.855,0,201.663v86.672c0,11.811,9.605,21.419,21.412,21.419h86.678   c11.81,0,21.418-9.608,21.418-21.419v-86.672C129.508,189.855,119.899,180.248,108.09,180.248z M13.951,201.663   c0-4.116,3.347-7.465,7.461-7.465h86.678c4.118,0,7.469,3.349,7.469,7.465v86.672c0,4.118-3.351,7.469-7.469,7.469H21.412   c-4.114,0-7.461-3.351-7.461-7.469V201.663z" data-original="#000000" class="active-path" data-old_color="#00E5FF" fill="#006BFF"/>
	<path d="M108.09,336.952H21.412C9.605,336.952,0,346.56,0,358.37v86.669c0,11.812,9.605,21.421,21.412,21.421h86.678   c11.81,0,21.418-9.609,21.418-21.421V358.37C129.508,346.56,119.899,336.952,108.09,336.952z M13.951,358.37   c0-4.117,3.347-7.467,7.461-7.467h86.678c4.118,0,7.469,3.35,7.469,7.467v86.669c0,4.119-3.351,7.47-7.469,7.47H21.412   c-4.114,0-7.461-3.351-7.461-7.47V358.37z" data-original="#000000" class="active-path" data-old_color="#00E5FF" fill="#006BFF"/>
	<path d="M47.526,280.016c1.324,1.535,3.248,2.415,5.278,2.415c0.128,0,0.259-0.003,0.387-0.011   c2.143-0.118,4.147-1.246,5.363-3.017l41.807-60.909c1.056-1.537,1.449-3.392,1.108-5.224c-0.341-1.832-1.375-3.421-2.911-4.476   c-1.168-0.802-2.531-1.226-3.942-1.226c-2.303,0-4.454,1.132-5.756,3.029l-36.691,53.454l-11.99-13.878   c-1.327-1.535-3.253-2.415-5.283-2.415c-1.672,0-3.291,0.603-4.557,1.697c-2.911,2.514-3.233,6.928-0.719,9.839L47.526,280.016z" data-original="#000000" class="active-path" data-old_color="#00E5FF" fill="#006BFF"/>
</g></g> </svg>
